<svg width="284" height="199" viewBox="0 0 284 199" fill="none" xmlns="http://www.w3.org/2000/svg">
<path d="M59.5 192C53.5806 180.337 42.6465 152.676 70.0524 107.566C97.4583 62.4557 166.221 67.6961 193.627 85.3293C221.033 102.963 234.417 125.765 237.25 149.772C240.011 173.779 228 192 228 192H59.5Z" fill="#75BF7A"/>
<path d="M261.823 120.738H230.239C228.256 120.738 226.698 119.18 226.698 117.197V101.405C226.698 99.422 228.256 97.864 230.239 97.864H261.823C263.806 97.864 265.364 99.422 265.364 101.405V117.197C265.364 119.18 263.735 120.738 261.823 120.738Z" fill="#75BF7A"/>
<path d="M246.031 129.731L250.989 117.834H241.003L246.031 129.731Z" fill="#75BF7A"/>
<path d="M245.89 105.441H254.954V106.716L259.345 104.167L254.954 101.617V102.963H245.89V105.441Z" fill="#263238"/>
<path d="M259.345 110.611H250.28V109.265L245.89 111.885L250.28 114.435V113.089H259.345V110.611Z" fill="white"/>
<path d="M240.295 112.948L239.87 113.09C239.87 113.09 238.525 111.532 237.817 109.903C237.108 108.203 237.108 106.22 237.108 106.22L237.392 106.079L235.48 101.476C235.126 101.759 234.842 102.113 234.559 102.538C233.497 104.379 233.568 107.141 234.701 109.903C235.763 112.665 236.967 115.072 239.091 116.63C240.366 117.551 241.428 117.693 242.278 117.551L240.295 112.948Z" fill="#263238"/>
<path d="M241.712 112.381L241.145 112.594L243.128 117.268C243.34 117.197 243.553 117.126 243.694 116.985C244.19 116.701 244.403 116.135 244.19 115.568L243.199 113.019C242.915 112.452 242.278 112.169 241.712 112.381Z" fill="#263238"/>
<path d="M237.038 100.697C236.825 100.768 236.542 100.909 236.259 101.051L238.242 105.725L238.879 105.441C239.446 105.229 239.729 104.521 239.516 103.954L238.454 101.334C238.242 100.768 237.604 100.484 237.038 100.697Z" fill="#263238"/>
<path d="M59.7843 195.732V142.974C59.7843 142.974 59.2178 128.74 66.6535 124.633C74.16 120.525 105.602 122.721 105.602 122.721V195.661H59.7843V195.732Z" fill="#75BF7A"/>
<path d="M115.517 73.3617C115.517 73.3617 113.605 89.3662 112.896 90.6409C112.188 91.9864 112.188 91.9864 112.188 91.9864L108.506 94.4649C108.506 94.4649 115.517 104.45 124.156 106.008C132.796 107.637 132.088 102.467 132.088 102.467L130.742 99.7053L132.513 84.4798C132.513 84.5507 116.791 77.3274 115.517 73.3617Z" fill="#FF9D8C"/>
<path d="M103.903 95.8106L109.639 93.332C109.639 93.332 113.321 99.3514 121.819 102.821C130.317 106.291 130.459 104.309 130.884 102.821C131.309 101.334 130.742 99.7763 130.742 99.7763L131.38 94.6775L134.779 95.8106L146.534 191.2L116.225 192.687L103.903 95.8106Z" fill="white"/>
<path d="M131.946 94.7483C131.946 94.7483 133.999 99.493 135.912 110.611C137.824 121.729 139.594 140.496 140.019 153.384C140.444 166.273 140.727 195.732 140.727 195.732C140.727 195.732 178.543 195.732 178.968 195.732C179.393 195.732 182.013 181.215 182.013 181.215C182.013 181.215 165.3 166.91 164.45 164.573C163.884 163.015 164.167 134.051 161.689 120.738C159.21 107.424 155.952 104.733 149.225 101.405C142.214 97.935 131.946 94.7483 131.946 94.7483Z" fill="#263238"/>
<path d="M151.845 178.949C151.633 178.949 151.491 178.807 151.491 178.595C151.491 177.532 151.279 162.661 151.137 148.285C150.925 133.91 150.783 119.038 150.783 117.976C150.783 117.763 150.925 117.622 151.137 117.622C151.35 117.622 151.491 117.763 151.491 117.976C151.491 119.038 151.704 133.91 151.845 148.285C152.058 162.661 152.2 177.532 152.2 178.595C152.2 178.807 152.058 178.949 151.845 178.949Z" fill="#263238"/>
<path d="M75.647 175.337L75.3638 195.732H119.907C119.907 195.732 121.819 178.453 121.111 176.824C120.332 175.195 75.647 175.337 75.647 175.337Z" fill="#263238"/>
<path d="M125.219 90.216C127.06 91.7031 129.538 92.8362 131.45 93.5443L132.513 84.4798C132.513 84.4798 120.757 79.0978 116.721 75.0613C117.57 79.6643 119.624 85.7545 125.219 90.216Z" fill="#263238"/>
<path d="M146.251 43.6188C146.251 43.6188 149.296 48.8592 149.933 55.3743C150.5 61.8186 149.933 78.3896 144.693 85.4004C139.452 92.4112 128.405 90.3575 123.448 86.1086C118.845 82.2137 114.383 77.8939 113.18 69.3959C111.976 60.898 115.658 44.7519 126.068 41.4235C136.478 38.0951 146.251 43.6188 146.251 43.6188Z" fill="#FF9D8C"/>
<path d="M159.493 186.526C159.493 186.526 158.998 186.526 158.219 186.526C158.006 186.526 157.794 186.526 157.652 186.526C156.873 186.526 155.953 186.455 155.032 186.455C154.82 186.455 154.607 186.455 154.395 186.455C153.474 186.455 152.695 186.526 151.916 186.526C151.774 186.526 151.562 186.526 151.35 186.526C151.279 186.526 151.208 186.526 151.137 186.526C150.712 186.455 150.641 186.384 150.146 186.172C149.579 185.889 141.506 184.118 134.92 184.118C128.405 184.118 122.527 184.614 121.536 183.764C120.544 182.985 119.978 174.7 125.572 174.204L132.442 176.824C132.442 176.824 148.092 174.983 153.899 179.232C159.635 183.41 159.493 186.526 159.493 186.526Z" fill="#FF9D8C"/>
<path d="M151.916 186.455C151.774 186.455 151.562 186.455 151.349 186.455C151.208 186.243 150.925 185.818 150.783 185.677C149.013 183.835 144.764 182.702 143.206 182.348C143.064 182.277 142.993 182.207 142.993 181.994C142.993 181.852 143.135 181.782 143.347 181.782C145.613 182.348 150.429 183.694 151.774 186.031C151.704 186.101 151.845 186.314 151.916 186.455Z" fill="#263238"/>
<path d="M154.961 186.455C154.749 186.455 154.536 186.455 154.324 186.455C152.412 182.915 149.225 181.923 145.33 180.649L145.118 180.578C144.976 180.507 144.905 180.365 144.976 180.224C145.047 180.082 145.188 180.011 145.33 180.082L145.543 180.153C149.65 181.427 152.978 182.49 154.961 186.455Z" fill="#263238"/>
<path d="M158.219 186.526C158.006 186.526 157.794 186.526 157.581 186.526C156.377 184.048 152.553 179.94 147.384 178.949C147.242 178.949 147.171 178.807 147.171 178.666C147.171 178.524 147.313 178.453 147.455 178.453C152.766 179.445 157.015 183.764 158.219 186.526Z" fill="#263238"/>
<path d="M116.65 62.1728C116.65 62.1728 119.907 60.6148 122.174 56.295C124.44 51.9752 124.156 48.0804 124.156 48.0804C124.156 48.0804 128.264 47.443 134.425 49.2842C140.586 51.1255 147.88 53.604 154.041 50.0632C160.202 46.5224 160.202 40.9279 157.157 38.591C153.758 35.9708 147.101 37.5996 147.101 37.5996C147.101 37.5996 149.65 35.121 148.305 33.6338C146.888 32.1467 141.86 34.0587 141.86 34.0587C141.86 34.0587 135.699 29.1724 124.086 29.739C112.472 30.3055 106.877 38.4493 106.24 47.5138C105.603 56.5783 108.86 65.7136 108.86 65.7136L116.65 62.1728Z" fill="#263238"/>
<path d="M140.302 64.3679C139.665 65.9966 139.665 67.9087 139.523 69.6083C139.382 70.9538 139.169 72.5117 140.373 73.4323C140.94 73.8572 143.772 75.0611 142.285 75.9817C141.719 76.3358 140.798 76.265 140.232 76.1942C139.807 76.1942 139.382 76.1234 138.957 76.1234C138.532 76.1234 138.036 75.9817 137.611 75.9817C137.328 75.9817 137.257 76.3358 137.47 76.4774C138.178 76.9732 139.311 77.1148 140.161 77.1148C141.011 77.1148 141.577 77.1148 142.356 76.6899C142.852 76.4774 143.277 76.1234 143.347 75.5568C143.418 74.9195 142.923 74.353 142.498 73.9989C141.931 73.574 141.294 73.3615 140.727 73.0074C139.948 72.4409 140.019 71.5203 140.09 70.6705C140.232 68.6168 140.727 66.5632 140.869 64.4387C140.869 64.1554 140.373 64.1554 140.302 64.3679Z" fill="#263238"/>
<path d="M146.322 69.2543C146.11 70.4582 145.189 71.3788 144.339 71.2372C143.418 71.0956 142.923 69.9625 143.135 68.6878C143.348 67.4839 144.268 66.5633 145.118 66.705C145.968 66.9174 146.534 68.0505 146.322 69.2543Z" fill="#263238"/>
<path d="M135.062 68.2628C134.849 69.6083 133.929 70.5289 132.937 70.3872C131.946 70.2456 131.379 69.0417 131.592 67.6962C131.804 66.3507 132.725 65.4301 133.716 65.5717C134.708 65.7134 135.274 66.9172 135.062 68.2628Z" fill="#263238"/>
<path d="M143.701 64.1556C144.409 64.2973 145.047 64.1556 145.755 64.2265C145.897 64.2265 146.109 64.2973 146.251 64.2973C146.392 64.2973 146.038 64.2973 146.18 64.2973H146.251C146.321 64.2973 146.392 64.2973 146.534 64.3681C146.676 64.4389 146.817 64.4389 146.959 64.5097C147.1 64.5097 147.242 64.5805 147.384 64.5805C147.455 64.5805 147.525 64.5805 147.596 64.5805C147.525 64.5805 147.525 64.5805 147.455 64.5805H147.738C148.163 64.5097 148.375 64.014 148.234 63.6599C148.234 63.5183 148.163 63.4475 148.092 63.3767C148.092 63.3059 148.021 63.3059 148.021 63.235L148.092 63.3059C148.092 63.235 148.021 63.235 148.021 63.1642C147.95 63.0934 147.95 63.0226 147.879 63.0226C147.809 62.9518 147.738 62.9518 147.738 62.881C147.525 62.7393 147.313 62.6685 147.1 62.5977C146.676 62.5269 146.251 62.4561 145.826 62.4561C145.401 62.4561 144.976 62.5269 144.551 62.5269C144.197 62.5977 143.772 62.6685 143.489 62.9518C143.276 63.0934 143.135 63.3767 143.135 63.6599C143.206 63.8724 143.418 64.1556 143.701 64.1556Z" fill="#263238"/>
<path d="M135.841 62.2435C135.77 62.1727 135.628 62.1727 135.557 62.1019C135.487 62.0311 135.274 61.9602 135.416 62.0311C135.345 62.0311 135.274 61.9602 135.203 61.9602C134.92 61.8186 134.637 61.7478 134.354 61.677C133.716 61.5353 133.008 61.4645 132.3 61.5354C131.592 61.6062 130.884 61.8186 130.246 62.1727C130.175 62.2435 130.034 62.3143 129.963 62.3851C129.892 62.456 129.892 62.5268 129.821 62.5976C129.821 62.5976 129.821 62.5268 129.892 62.5268C129.68 62.6684 129.609 62.8809 129.609 63.0933C129.609 63.3058 129.751 63.5182 129.892 63.589C130.105 63.7307 130.388 63.6598 130.6 63.589C130.459 63.589 130.388 63.589 130.246 63.589C130.459 63.589 130.6 63.6598 130.813 63.589C130.813 63.589 131.025 63.5182 130.884 63.589C130.742 63.589 131.096 63.589 131.096 63.589C131.167 63.589 131.379 63.589 131.096 63.589C131.167 63.589 131.167 63.589 131.238 63.589C131.379 63.589 131.45 63.589 131.592 63.5182C132.087 63.4474 132.583 63.4474 133.008 63.4474C133.433 63.4474 133.929 63.4474 134.354 63.4474C134.566 63.4474 134.708 63.4474 134.92 63.4474C134.991 63.4474 135.062 63.4474 134.92 63.4474C134.991 63.4474 134.991 63.4474 135.062 63.4474C135.133 63.4474 135.203 63.5182 135.274 63.5182C135.557 63.6598 135.982 63.3766 136.053 63.0933C136.266 62.7392 136.195 62.3851 135.841 62.2435Z" fill="#263238"/>
<path d="M139.381 82.5677C140.019 81.2222 141.294 80.2307 142.71 79.5934C141.506 79.4517 135.699 78.956 134.212 79.735C132.583 80.6556 134.495 84.4089 137.894 84.6213C138.248 84.6213 138.602 84.6213 138.886 84.5505C138.886 83.9132 139.027 83.205 139.381 82.5677Z" fill="#263238"/>
<path d="M112.542 74.7072C112.542 74.7072 113.109 76.9733 116.508 79.5935C119.907 82.2137 124.794 84.1257 124.794 84.1257L125.219 82.4261C125.219 82.4261 120.191 80.2308 117.854 77.8231C115.517 75.4153 115.233 74.0698 115.233 74.0698L112.542 74.7072Z" fill="#263238"/>
<path d="M125.785 81.2222C128.476 81.0806 130.034 83.205 130.175 84.6214C130.388 86.0377 129.042 87.5956 125.997 86.1793C122.244 84.4797 123.023 81.3638 125.785 81.2222Z" fill="#263238"/>
<path d="M114.667 57.9238C114.667 57.9238 115.871 49.4967 121.465 43.7605C132.229 32.8549 141.365 33.4922 141.365 33.4922C141.365 33.4922 141.294 31.9342 137.824 30.8012C134.566 29.6681 133.15 30.3055 133.15 30.3055C133.15 30.3055 124.298 31.0136 116.791 39.2991C109.285 47.5846 108.506 58.1362 108.506 58.1362L114.667 57.9238Z" fill="#263238"/>
<path d="M113.888 56.9322C106.806 55.7283 102.911 61.252 102.628 66.8465C102.345 72.4409 106.381 76.6191 111.763 76.1942C123.944 75.2028 122.527 58.3485 113.888 56.9322Z" fill="white"/>
<path d="M110.347 70.7413C108.506 70.7413 106.877 69.8207 106.027 68.1919C105.036 66.4215 105.177 64.2262 106.239 62.6682C106.31 62.5266 106.452 62.5266 106.594 62.5974C106.735 62.6682 106.735 62.8807 106.664 62.9515C105.673 64.3678 105.602 66.3507 106.452 67.9086C107.302 69.3958 108.718 70.2456 110.488 70.2456C112.117 70.1748 113.463 69.4666 114.313 68.1919C115.304 66.7048 115.516 64.6511 114.879 63.0223C114.242 61.3227 112.542 60.1897 110.913 60.4021C110.772 60.4021 110.63 60.3313 110.63 60.1897C110.63 60.048 110.701 59.9064 110.843 59.9064C112.684 59.694 114.667 60.8978 115.375 62.8099C116.083 64.6511 115.8 66.8464 114.737 68.4752C113.746 69.8915 112.259 70.7413 110.488 70.8121C110.488 70.7413 110.418 70.7413 110.347 70.7413Z" fill="#263238"/>
<path d="M105.248 93.7566C105.248 93.7566 83.8618 98.997 76.3553 107.495C68.8487 115.993 65.3787 157.916 65.2371 165.635C65.0955 173.425 70.4775 176.612 73.7351 178.807C76.9926 181.002 91.1559 184.968 102.628 185.534C114.029 186.101 124.864 185.534 124.864 185.534C124.864 185.534 124.794 183.056 126.564 179.373C128.193 175.974 130.246 175.266 130.246 175.266L120.403 171.725C120.403 171.725 118.703 140.92 116.012 125.978C113.038 108.982 105.248 93.7566 105.248 93.7566Z" fill="#263238"/>
<path d="M140.727 166.91C140.656 166.91 140.656 166.91 140.586 166.91C140.373 166.839 140.302 166.627 140.373 166.414C142.356 161.882 144.481 153.03 145.614 146.798L145.684 146.302C146.038 144.461 146.463 142.195 145.614 140.637C145.189 139.858 144.126 138.088 143.206 136.388C142.214 134.618 141.223 132.989 141.011 132.493C140.515 131.502 142.144 128.952 144.481 125.482C145.118 124.562 145.684 123.712 145.968 123.146C146.817 121.729 146.251 120.384 145.614 118.826L145.401 118.33C144.835 116.914 144.126 115.427 143.489 114.081C143.206 113.515 142.993 112.948 142.71 112.381C142.356 111.603 142.002 110.824 141.648 110.045C139.594 105.441 137.47 100.626 134.708 96.0229C134.637 95.8813 134.637 95.6688 134.85 95.5272C134.991 95.4564 135.204 95.4564 135.345 95.6689C138.107 100.343 140.232 105.087 142.356 109.761C142.71 110.54 143.064 111.319 143.418 112.098C143.702 112.665 143.914 113.231 144.197 113.798C144.835 115.214 145.543 116.63 146.109 118.118L146.322 118.613C146.959 120.171 147.667 121.8 146.676 123.57C146.322 124.137 145.755 124.987 145.118 125.907C143.914 127.749 141.365 131.573 141.719 132.21C142.002 132.706 142.923 134.335 143.914 136.034C144.905 137.734 145.897 139.433 146.322 140.283C147.313 142.053 146.888 144.532 146.463 146.444L146.393 146.94C145.968 149.206 143.702 160.82 141.081 166.698C140.94 166.839 140.869 166.91 140.727 166.91Z" fill="#263238"/>
<path d="M119.836 168.185C119.766 168.185 119.624 168.185 119.553 168.114C117.853 166.414 109.851 152.534 109.285 149.914C108.931 148.498 109.78 144.886 110.559 141.345C111.197 138.654 111.834 135.822 111.622 135.043C111.338 133.91 109.285 132.21 107.302 130.581C104.894 128.599 102.416 126.616 101.92 124.774C101.353 122.721 101.849 109.691 102.132 101.122C102.274 98.0059 102.345 95.5982 102.345 94.7484C102.345 94.5359 102.486 94.3943 102.699 94.3943C102.911 94.3943 103.053 94.5359 103.053 94.7484C103.053 95.5982 102.982 98.0767 102.84 101.193C102.557 109.195 102.061 122.65 102.557 124.633C102.982 126.262 105.461 128.244 107.656 130.086C109.851 131.856 111.905 133.556 112.188 134.901C112.401 135.822 111.834 138.442 111.126 141.487C110.418 144.745 109.568 148.498 109.851 149.773C110.418 152.322 118.349 165.99 119.978 167.618C120.12 167.76 120.12 167.972 119.978 168.114C119.978 168.114 119.907 168.185 119.836 168.185Z" fill="#263238"/>
<path d="M91.0142 162.094C90.8018 162.094 90.6602 161.882 90.6602 161.669C90.9434 159.828 94.9799 123.145 95.1924 120.313C95.1924 120.1 95.4048 119.959 95.5465 119.959C95.7589 119.959 95.9006 120.171 95.9006 120.313C95.6881 123.145 91.6516 159.828 91.3683 161.669C91.3683 161.953 91.2267 162.094 91.0142 162.094Z" fill="#263238"/>
<path d="M120.191 172.08C120.12 172.08 120.12 172.08 120.049 172.08C119.128 171.725 115.163 170.38 110.135 168.68C99.9372 165.281 86.0572 160.537 83.3662 159.191C83.2246 159.12 83.1537 158.908 83.2246 158.695C83.2954 158.554 83.5078 158.483 83.7203 158.554C86.3405 159.899 100.787 164.785 110.347 168.043C115.375 169.743 119.412 171.088 120.332 171.442C120.545 171.513 120.616 171.725 120.545 171.938C120.474 172.009 120.332 172.08 120.191 172.08Z" fill="#263238"/>
<path d="M115.304 186.668C106.381 186.668 89.0314 185.039 75.8596 180.365C75.6472 180.294 75.5763 180.082 75.6472 179.94C75.718 179.728 75.9304 179.657 76.0721 179.728C92.7139 185.605 116.012 186.597 120.332 185.676C120.545 185.605 120.686 185.747 120.757 185.96C120.828 186.172 120.686 186.314 120.474 186.384C119.553 186.526 117.712 186.668 115.304 186.668Z" fill="#263238"/>
<path d="M12.9038 98.7134C15.6657 101.192 19.2065 102.75 21.6142 105.583C22.6057 106.716 23.4555 107.849 24.3052 109.053C24.9426 109.902 26.713 111.319 26.9963 112.381C27.1379 112.877 27.0671 112.239 26.9963 111.744V111.673C26.7838 109.548 26.5714 107.353 26.5005 105.158C26.4297 102.962 26.5714 100.838 26.4297 98.6426C26.2173 95.5975 25.2967 92.6233 22.8181 90.7112C21.6142 89.7906 20.0563 89.2241 18.9232 88.1618C17.861 87.1704 18.2859 86.0373 18.9232 84.9751C19.4897 83.9129 20.1979 82.9214 20.4812 81.7884C20.7644 80.4429 20.2687 79.0265 19.5606 77.8935C18.1442 75.4857 14.8867 72.7239 11.8416 73.078C9.2922 73.3612 9.00894 76.3355 9.07975 78.3892C9.07975 80.372 9.2922 82.3549 9.36302 84.3378C9.36302 86.3914 9.00894 88.3743 9.00894 90.4279C8.72567 93.8271 10.3544 96.4473 12.9038 98.7134Z" fill="#75BF7A"/>
<path d="M38.6809 130.439C39.4599 128.598 40.3097 126.898 41.4427 125.199C42.9299 122.862 44.6295 120.666 45.6209 118.046C46.6123 115.426 46.4707 112.593 46.6123 109.832C46.6831 107.778 47.3205 105.795 47.108 103.741C47.0372 102.75 46.4707 101.192 45.196 101.334C44.2046 101.475 43.638 102.679 43.2131 103.458C42.5758 104.804 42.0801 106.291 41.5844 107.707C41.3719 108.274 41.2303 108.84 40.947 109.407C40.8054 109.69 40.3805 110.469 39.9556 110.398C39.2474 110.186 39.8848 107.282 40.0264 106.786C40.5929 104.166 41.3719 101.758 41.5135 99.0675C41.6552 95.1726 41.3719 90.4987 37.5478 88.3742C36.5564 87.8077 35.2817 87.4536 34.3611 88.3034C33.4405 89.1532 33.1572 90.5695 33.0156 91.7026C32.5907 95.3142 33.4405 98.7134 34.5736 102.113C35.4942 104.945 36.6272 107.778 36.7689 110.823C36.8397 113.726 35.3525 116.276 34.6444 118.967C33.5113 123.287 33.7238 125.624 33.7238 127.04C33.7238 128.81 33.7946 130.51 33.9362 132.28C34.0778 133.909 34.2195 135.538 34.3611 137.096C34.4319 137.45 34.4319 137.733 34.5027 138.087C33.8654 136.6 33.6529 134.9 33.1572 133.413C32.2366 130.722 31.1744 128.173 30.3246 125.482C29.6164 123.287 28.9083 121.021 27.9876 118.896C27.067 116.913 26.0048 114.789 24.3052 113.302C23.3138 112.381 22.0391 111.885 20.6936 111.885C19.8438 111.885 19.0648 112.168 18.215 112.381C17.2236 112.664 16.3738 112.523 15.5948 111.885C12.833 109.761 12.054 106.007 10.0003 103.387C8.51317 101.404 4.90155 98.0052 2.28135 100.201C0.865022 101.334 0.51094 103.6 0.581756 105.299C0.652572 107.424 1.57318 109.407 2.70624 111.177C3.91012 113.089 5.39726 114.789 6.53032 116.701C7.16767 117.834 7.23848 118.967 7.16767 120.242C7.09685 121.445 6.95522 122.649 7.38012 123.853C8.65481 127.394 12.5497 126.898 15.5948 126.969C17.7193 127.04 19.9854 127.323 22.0391 128.031C24.376 128.81 25.8631 130.368 26.7129 132.634C27.3503 134.334 27.6336 136.175 28.7666 137.662C29.3331 138.3 30.0413 138.795 30.8203 139.149C32.0242 139.645 35.6358 139.928 35.6358 139.574C35.7066 138.441 36.2731 137.308 36.5564 136.246C37.1937 134.263 37.9019 132.351 38.6809 130.439Z" fill="#75BF7A"/>
<path d="M55.4644 129.731C55.1812 127.677 55.1812 125.482 54.2605 123.57C54.1897 123.428 53.9773 123.428 53.9065 123.499C53.1983 123.853 53.1983 124.986 53.1275 125.694C53.0567 126.827 53.1275 127.96 52.9859 129.094C52.7734 131.076 52.2777 133.13 51.5695 134.971C50.7906 137.096 49.3034 138.3 47.1789 138.937C45.8334 139.362 44.4879 139.716 43.3548 140.637C42.3634 141.416 41.6553 142.549 41.0887 143.752C39.6724 146.939 38.9642 150.48 38.3269 153.95C37.902 156.216 37.5479 158.553 36.9814 160.819C36.4149 163.085 35.8483 165.351 35.4942 167.688C35.4234 167.83 35.3526 167.901 35.3526 168.042C35.211 168.397 35.7775 168.609 35.9191 168.255C38.1144 164.856 40.8055 161.811 44.4879 159.969C46.1167 159.12 48.312 158.978 49.7283 157.632C50.7906 156.641 50.9322 155.083 50.7906 153.738C50.5781 151.967 49.7283 150.48 48.8077 148.922C48.312 148.072 47.7455 147.152 47.9579 146.16C48.1704 145.169 48.9493 144.461 49.7283 143.965C51.2155 143.044 53.0567 142.619 54.2605 141.203C55.3936 139.928 56.031 138.37 56.1726 136.671C56.2434 134.405 55.8185 131.997 55.4644 129.731Z" fill="#75BF7A"/>
<path d="M25.509 141.416C23.5969 138.937 21.1892 136.742 18.569 134.971C17.1526 134.051 13.8243 132.21 13.1869 134.971C12.762 136.6 14.3908 138.158 15.3822 139.22C16.9402 140.707 18.7814 142.053 20.0561 143.823C18.4273 144.319 16.7278 144.461 15.3114 145.594C13.6118 146.939 12.9037 149.489 14.5324 151.117C15.3114 151.896 16.4445 152.392 17.4359 152.888C18.7814 153.525 20.0561 154.092 21.4016 154.658C24.3051 155.862 27.2794 157.137 29.7579 159.12C32.3073 161.173 34.6443 164.573 34.8567 167.901C34.8567 168.184 34.7859 167.901 34.9275 167.759C34.9983 167.83 35.3524 167.688 35.3524 167.476C35.2816 162.59 34.4318 157.916 32.3781 153.384C30.6077 149.276 28.2708 145.027 25.509 141.416Z" fill="#75BF7A"/>
<path d="M18.7814 95.7392C19.8436 97.9345 20.9767 100.13 22.1805 102.325C23.3136 104.379 24.4466 106.503 25.2964 108.699C26.3587 111.46 27.4209 114.151 28.554 116.842C29.6871 119.675 30.7493 122.579 31.5991 125.482C33.2279 131.218 34.4317 137.096 34.9983 143.044C35.2815 146.09 35.4232 149.064 35.3524 152.109C35.2815 154.446 34.9983 156.854 34.7858 159.191C34.5734 161.669 34.3609 164.148 34.5734 166.555C34.715 168.609 35.0691 171.088 36.6979 172.504C36.9811 172.787 37.4768 172.433 37.2644 172.079C35.3523 168.184 35.494 163.935 35.8481 159.757C36.0605 157.42 36.3438 155.083 36.4146 152.746C36.4854 149.772 36.4146 146.798 36.1313 143.823C35.5648 138.016 34.4317 132.28 32.9446 126.615C32.1656 123.712 31.245 120.879 30.1119 118.117C28.9789 115.355 27.7042 112.593 26.642 109.832C24.7299 104.733 21.7556 100.271 19.1354 95.5267C18.9938 95.2434 18.6397 95.4559 18.7814 95.7392Z" fill="#263238"/>
<path d="M35.14 137.237C35.4233 133.555 35.7774 130.014 37.0521 126.473C37.6186 124.845 38.3268 123.216 38.8933 121.587C39.389 120.241 40.0263 118.329 39.6723 116.913C39.6014 116.771 39.389 116.771 39.3182 116.913C39.1057 117.763 39.1057 118.684 38.9641 119.533C38.8225 120.383 38.5392 121.162 38.3268 121.941C37.7602 123.641 37.0521 125.269 36.4147 126.969C35.2108 130.227 34.5735 133.838 34.8568 137.308C34.8568 137.379 35.0692 137.379 35.14 137.237Z" fill="#263238"/>
<path d="M13.6827 115.992C15.1698 119.533 19.5605 119.746 22.7472 120.525C25.0133 121.091 26.7129 122.649 27.9168 124.632C29.2623 126.827 30.1829 129.377 30.891 131.784H30.9619C30.0413 127.535 28.7666 122.437 24.376 120.454C20.8351 118.896 16.2321 119.675 13.966 115.851C13.966 115.638 13.6119 115.78 13.6827 115.992Z" fill="#263238"/>
<path d="M32.8032 136.671C32.9448 136.883 33.1573 137.167 33.2989 137.379C33.3697 137.521 33.5113 137.592 33.5822 137.662C33.7238 137.733 33.8654 137.875 34.007 137.875C34.0779 137.875 34.1487 137.804 34.0779 137.733C34.007 137.592 33.8654 137.521 33.7946 137.45C33.7238 137.379 33.5822 137.237 33.5113 137.167C33.2989 136.954 33.0864 136.742 32.9448 136.529C32.8032 136.6 32.7324 136.6 32.8032 136.671Z" fill="#263238"/>
<path d="M23.5971 147.931C26.1465 149.984 28.4834 152.463 30.3247 155.154C31.2453 156.429 32.0243 157.774 32.8032 159.191C33.5822 160.678 34.1487 162.306 34.7861 163.864C34.8569 164.006 35.0694 164.006 35.0694 163.864C34.7153 160.536 32.5908 157.703 30.8912 154.871C30.0414 153.454 28.9083 152.251 27.7753 151.047C26.5714 149.772 25.2967 148.639 23.8804 147.647C23.6679 147.506 23.4555 147.789 23.5971 147.931Z" fill="#263238"/>
<path d="M43.78 143.965C42.5761 144.673 42.5053 146.585 42.5053 147.789C42.4345 150.126 43.0718 152.392 42.0096 154.587C41.089 156.641 39.6018 158.341 38.3979 160.182C37.2649 161.952 36.2026 164.218 36.2026 166.343C36.2026 166.484 36.4151 166.555 36.4151 166.414C36.84 165.422 37.0524 164.36 37.3357 163.369C37.6898 162.235 38.1855 161.173 38.8228 160.182C39.9559 158.411 41.3722 156.853 42.2928 154.941C43.2843 152.959 43.1426 150.976 43.0718 148.851C43.001 147.506 42.8594 145.24 43.9924 144.248C44.2049 144.177 43.9924 143.894 43.78 143.965Z" fill="#263238"/>
<path d="M35.6359 166.626C30.7496 166.555 21.4019 166.484 21.4019 166.484L23.7388 183.693C24.2345 187.588 27.5629 190.42 31.4578 190.42H35.4943H35.9192H39.9557C43.8506 190.42 47.179 187.517 47.6747 183.693L50.0116 166.484C49.87 166.555 40.5222 166.555 35.6359 166.626Z" fill="white"/>
<path d="M272.941 135.113L244.898 190.562L163.247 191.128L188.457 134.263L272.941 135.113Z" fill="#263238"/>
<path d="M109.072 190.775V186.313H161.901L186.191 132.989H270.746L272.87 135.042H190.369L165.088 190.704C165.088 190.775 109.072 190.633 109.072 190.775Z" fill="#263238"/>
<path d="M230.522 165.706C229.601 168.467 224.573 170.592 219.333 170.45C214.093 170.309 210.552 167.972 211.472 165.21C212.393 162.448 217.421 160.324 222.661 160.465C227.972 160.607 231.442 162.944 230.522 165.706Z" fill="#263238"/>
<path d="M165.088 191.129C165.017 191.129 165.017 191.129 164.946 191.129C164.734 191.058 164.663 190.845 164.805 190.633L190.157 134.759H272.941C273.153 134.759 273.295 134.901 273.295 135.113C273.295 135.325 273.153 135.467 272.941 135.467H190.582L165.371 190.916C165.371 191.058 165.23 191.129 165.088 191.129Z" fill="white"/>
<path d="M105.39 195.023H104.823H8.22998V198.989H104.823H105.39H279.598V195.023H105.39Z" fill="white"/>
<path d="M109.639 190.775H3.55615V196.015H109.639V190.775Z" fill="#263238"/>
<path d="M283.847 190.775H109.072V196.015H283.847V190.775Z" fill="#263238"/>
<path d="M80.8872 77.752H46.5414C44.4169 77.752 42.7173 76.0524 42.7173 73.9279V56.7904C42.7173 54.6659 44.4169 52.9663 46.5414 52.9663H80.8164C82.9409 52.9663 84.6405 54.6659 84.6405 56.7904V73.9279C84.7113 76.0524 83.0117 77.752 80.8872 77.752Z" fill="white"/>
<path d="M94.4838 65.359L81.5952 59.9061V70.8118L94.4838 65.359Z" fill="white"/>
<path d="M55.606 67.6962C56.8966 67.6962 57.9429 66.6499 57.9429 65.3593C57.9429 64.0686 56.8966 63.0223 55.606 63.0223C54.3153 63.0223 53.269 64.0686 53.269 65.3593C53.269 66.6499 54.3153 67.6962 55.606 67.6962Z" fill="#263238"/>
<path d="M63.75 67.6961C65.0407 67.6961 66.087 66.6498 66.087 65.3592C66.087 64.0685 65.0407 63.0222 63.75 63.0222C62.4594 63.0222 61.4131 64.0685 61.4131 65.3592C61.4131 66.6498 62.4594 67.6961 63.75 67.6961Z" fill="#263238"/>
<path d="M71.8228 67.6961C73.1134 67.6961 74.1597 66.6498 74.1597 65.3592C74.1597 64.0685 73.1134 63.0222 71.8228 63.0222C70.5321 63.0222 69.4858 64.0685 69.4858 65.3592C69.4858 66.6498 70.5321 67.6961 71.8228 67.6961Z" fill="#263238"/>
<path d="M255.449 0.279297H176.277C171.178 0.279297 167.071 4.38664 167.071 9.48541V47.018C167.071 52.1168 171.178 56.2241 176.277 56.2241H183.359C183.571 59.6233 183.075 64.7221 180.243 71.1663C189.378 66.9174 194.689 60.6147 197.38 56.2241H255.449C260.548 56.2241 264.656 52.1168 264.656 47.018V9.48541C264.656 4.38664 260.548 0.279297 255.449 0.279297Z" fill="#75BF7A"/>
<path d="M221.67 18.1957H182.438C181.376 18.1957 180.455 17.3459 180.455 16.2128C180.455 15.1506 181.305 14.23 182.438 14.23H221.67C222.732 14.23 223.653 15.0798 223.653 16.2128C223.653 17.2751 222.732 18.1957 221.67 18.1957Z" fill="white"/>
<path d="M249.855 29.597H181.659C181.022 29.597 180.455 29.0304 180.455 28.3931C180.455 27.7557 181.022 27.1892 181.659 27.1892H249.855C250.492 27.1892 251.059 27.7557 251.059 28.3931C251.059 29.0304 250.492 29.597 249.855 29.597Z" fill="#75BF7A"/>
<path d="M249.855 36.1828H181.659C181.022 36.1828 180.455 35.6162 180.455 34.9789C180.455 34.3416 181.022 33.775 181.659 33.775H249.855C250.492 33.775 251.059 34.3416 251.059 34.9789C251.059 35.6871 250.492 36.1828 249.855 36.1828Z" fill="#75BF7A"/>
<path d="M234.984 43.2644H181.659C181.022 43.2644 180.455 42.6979 180.455 42.0606C180.455 41.4232 181.022 40.8567 181.659 40.8567H234.984C235.621 40.8567 236.187 41.4232 236.187 42.0606C236.187 42.7687 235.621 43.2644 234.984 43.2644Z" fill="#75BF7A"/>
<path d="M249.288 18.1957H230.522C229.46 18.1957 228.539 17.3459 228.539 16.2128C228.539 15.1506 229.389 14.23 230.522 14.23H249.288C250.35 14.23 251.271 15.0798 251.271 16.2128C251.271 17.2751 250.35 18.1957 249.288 18.1957Z" fill="white"/>
<path d="M202.054 104.591H180.809C180.03 104.591 179.393 103.954 179.393 103.175V88.6577C179.393 87.8787 180.03 87.2413 180.809 87.2413H202.054C202.833 87.2413 203.47 87.8787 203.47 88.6577V103.175C203.47 103.954 202.904 104.591 202.054 104.591Z" fill="white"/>
<path d="M191.573 98.5012C191.431 98.5012 191.36 98.4304 191.219 98.3596L179.676 88.7994C179.463 88.587 179.392 88.3037 179.605 88.0204C179.817 87.808 180.101 87.7372 180.384 87.9496L191.644 97.2265L202.62 87.7372C202.833 87.5247 203.187 87.5955 203.399 87.808C203.612 88.0204 203.541 88.3745 203.328 88.587L192.068 98.4304C191.856 98.4304 191.714 98.5012 191.573 98.5012Z" fill="#263238"/>
<path d="M180.03 104.166C179.888 104.166 179.746 104.096 179.675 104.025C179.463 103.812 179.463 103.458 179.675 103.246L187.748 94.7478C187.961 94.5354 188.315 94.5354 188.527 94.7478C188.74 94.9603 188.74 95.3144 188.527 95.5268L180.454 104.025C180.313 104.096 180.171 104.166 180.03 104.166Z" fill="#263238"/>
<path d="M202.903 103.883C202.762 103.883 202.62 103.812 202.549 103.741L194.405 95.5976C194.193 95.3852 194.193 95.0311 194.405 94.8186C194.618 94.6062 194.972 94.6062 195.184 94.8186L203.257 102.892C203.47 103.104 203.47 103.458 203.257 103.671C203.116 103.812 203.045 103.883 202.903 103.883Z" fill="#263238"/>
<path d="M204.603 93.7565C208.514 93.7565 211.685 90.586 211.685 86.6749C211.685 82.7638 208.514 79.5933 204.603 79.5933C200.692 79.5933 197.521 82.7638 197.521 86.6749C197.521 90.586 200.692 93.7565 204.603 93.7565Z" fill="#FF5F42"/>
<path d="M202.62 86.6751C202.762 86.6751 202.974 86.8167 203.116 86.9584C203.258 87.1 203.399 87.2416 203.47 87.4541C203.541 87.6665 203.612 87.879 203.612 88.0914C203.612 88.3747 203.541 88.6579 203.399 88.8704C203.258 89.0828 203.045 89.2953 202.762 89.4369C202.479 89.5786 202.195 89.6494 201.841 89.6494C201.487 89.6494 201.204 89.5786 200.921 89.4369C200.637 89.2953 200.425 89.0828 200.283 88.8704C200.142 88.6579 200.071 88.3747 200.071 88.0914C200.071 87.8081 200.142 87.5957 200.212 87.4541C200.283 87.3124 200.425 87.1 200.567 86.9584C200.708 86.8167 200.921 86.7459 201.062 86.6043C200.921 86.5335 200.779 86.3918 200.637 86.321C200.496 86.1794 200.425 86.0377 200.283 85.8253C200.212 85.6128 200.142 85.4712 200.142 85.2588C200.142 84.9755 200.212 84.6922 200.354 84.4798C200.496 84.2673 200.708 84.0549 200.921 83.9133C201.204 83.7716 201.416 83.7008 201.77 83.7008C202.124 83.7008 202.337 83.7716 202.62 83.9133C202.903 84.0549 203.045 84.2673 203.187 84.4798C203.328 84.6922 203.399 84.9755 203.399 85.2588C203.399 85.4712 203.328 85.6837 203.258 85.8253C203.187 86.0377 203.045 86.1794 202.903 86.321C202.903 86.4626 202.762 86.6043 202.62 86.6751ZM201.912 89.3661C202.337 89.3661 202.691 89.2245 202.974 89.012C203.258 88.7996 203.399 88.4455 203.399 88.0914C203.399 87.8081 203.328 87.5957 203.187 87.4541C203.045 87.2416 202.903 87.1 202.691 87.0292C202.479 86.8875 202.266 86.8875 201.983 86.8875C201.7 86.8875 201.487 86.9584 201.275 87.0292C201.062 87.1708 200.921 87.3124 200.779 87.4541C200.637 87.6665 200.567 87.879 200.567 88.0914C200.567 88.4455 200.708 88.7288 200.921 89.012C201.133 89.2953 201.487 89.3661 201.912 89.3661ZM200.637 85.2588C200.637 85.542 200.708 85.7545 200.85 85.8961C200.991 86.1086 201.133 86.2502 201.345 86.321C201.558 86.3918 201.77 86.4626 201.983 86.4626C202.195 86.4626 202.408 86.3918 202.62 86.321C202.833 86.2502 202.974 86.0377 203.116 85.8961C203.258 85.6837 203.328 85.4712 203.328 85.2588C203.328 84.9047 203.187 84.6214 202.974 84.3382C202.762 84.0549 202.408 83.9841 202.054 83.9841C201.7 83.9841 201.345 84.1257 201.133 84.3382C200.921 84.5506 200.637 84.9047 200.637 85.2588Z" fill="white"/>
<path d="M206.161 89.6493C205.949 89.6493 205.665 89.5784 205.453 89.5076C205.24 89.4368 205.028 89.2952 204.815 89.1535L204.745 89.0827V89.0119C204.745 88.9411 204.745 88.9411 204.815 88.8703C204.815 88.7995 204.886 88.7995 204.957 88.7995C205.028 88.7995 205.028 88.7995 205.099 88.8703C205.24 89.0119 205.453 89.0827 205.665 89.1535C205.878 89.2244 206.09 89.2244 206.232 89.2244C206.586 89.2244 206.869 89.1535 207.152 89.0119C207.436 88.8703 207.648 88.6578 207.79 88.4454C207.931 88.1621 208.002 87.8789 208.002 87.5956C208.002 87.3123 207.931 87.0291 207.79 86.7458C207.648 86.5333 207.436 86.3209 207.223 86.1793C206.94 86.0376 206.657 85.9668 206.303 85.9668C206.09 85.9668 205.878 85.9668 205.736 86.0376C205.524 86.1084 205.382 86.1793 205.311 86.2501C205.24 86.3209 205.099 86.3209 205.028 86.3209H204.957L204.886 86.2501C204.886 86.2501 204.886 86.1793 204.886 86.1085L205.311 83.7715C205.311 83.7715 205.311 83.7007 205.382 83.7007C205.453 83.7007 205.453 83.6299 205.524 83.6299H208.144C208.215 83.6299 208.215 83.6299 208.285 83.7007C208.356 83.7715 208.356 83.7715 208.356 83.8423C208.356 83.9131 208.356 83.9131 208.285 83.984C208.215 84.0548 208.215 84.0548 208.144 84.0548H205.594L205.665 83.984L205.24 86.1085L205.099 86.0376C205.17 85.9668 205.311 85.896 205.453 85.896C205.594 85.896 205.736 85.7544 205.948 85.7544C206.161 85.6836 206.303 85.6835 206.515 85.6835C206.869 85.6835 207.223 85.7544 207.506 85.896C207.79 86.0376 208.002 86.2501 208.215 86.5333C208.356 86.8166 208.498 87.1707 208.498 87.5248C208.498 87.9497 208.427 88.3038 208.215 88.587C208.073 88.8703 207.79 89.1535 207.506 89.2952C206.94 89.5784 206.586 89.6493 206.161 89.6493Z" fill="white"/>
<path d="M275.986 84.0548H234.488C232.93 84.0548 231.655 82.7801 231.655 81.2221V74.707C231.655 73.1491 232.93 71.8744 234.488 71.8744H275.986C277.544 71.8744 278.819 73.1491 278.819 74.707V81.2221C278.819 82.7801 277.544 84.0548 275.986 84.0548Z" fill="#263238"/>
<path d="M237.462 81.151C237.25 81.151 237.108 81.0802 237.037 80.9386C236.896 80.7969 236.896 80.6553 236.896 80.4429L237.108 78.8849C237.108 78.8141 237.108 78.8141 237.108 78.8141H237.037L235.763 79.7347C235.621 79.8763 235.408 79.8763 235.267 79.8763C235.125 79.8763 234.984 79.7347 234.842 79.5931C234.7 79.3806 234.7 79.1682 234.771 79.0265C234.842 78.8849 234.984 78.7433 235.125 78.6725L236.612 78.0351C236.683 78.0351 236.683 78.0351 236.683 77.9643C236.683 77.9643 236.683 77.8935 236.612 77.8935L235.125 77.2561C234.913 77.1853 234.842 77.0437 234.771 76.902C234.7 76.7604 234.771 76.548 234.842 76.4063C234.913 76.2647 235.054 76.1231 235.267 76.1231C235.408 76.1231 235.621 76.1231 235.763 76.2647L237.037 77.2561C237.108 77.2561 237.108 77.2561 237.108 77.2561V77.1853L236.896 75.6274C236.896 75.4149 236.966 75.2733 237.037 75.1316C237.179 74.99 237.321 74.9192 237.533 74.9192C237.745 74.9192 237.887 74.99 237.958 75.1316C238.099 75.2733 238.099 75.4149 238.099 75.6274L237.887 77.1853C237.887 77.2561 237.887 77.2561 237.887 77.2561H237.958L239.233 76.3355C239.374 76.1939 239.587 76.1939 239.728 76.1939C239.941 76.1939 240.012 76.3355 240.153 76.4771C240.295 76.6896 240.295 76.902 240.224 77.0437C240.153 77.1853 240.012 77.3269 239.87 77.3978L238.383 78.0351C238.312 78.0351 238.312 78.0351 238.312 78.1059C238.312 78.1059 238.312 78.1767 238.383 78.1767L239.87 78.8141C240.082 78.8849 240.153 79.0265 240.224 79.1682C240.295 79.3098 240.295 79.5222 240.153 79.6639C240.082 79.8055 239.941 79.9471 239.728 79.9471C239.516 79.9471 239.374 79.9471 239.233 79.8055L237.958 78.8141C237.887 78.8141 237.887 78.8141 237.887 78.8141V78.8849L238.099 80.4429C238.099 80.6553 238.099 80.7969 237.958 80.9386C237.816 81.0802 237.675 81.151 237.462 81.151Z" fill="white"/>
<path d="M246.031 81.151C245.819 81.151 245.677 81.0802 245.606 80.9386C245.464 80.7969 245.464 80.6553 245.464 80.4429L245.677 78.8849C245.677 78.8141 245.677 78.8141 245.677 78.8141H245.606L244.331 79.7347C244.19 79.8763 243.977 79.8763 243.836 79.8763C243.694 79.8763 243.552 79.7347 243.411 79.5931C243.269 79.3806 243.269 79.1682 243.34 79.0265C243.411 78.8849 243.552 78.7433 243.694 78.6725L245.181 78.0351C245.252 78.0351 245.252 78.0351 245.252 77.9643C245.252 77.9643 245.252 77.8935 245.181 77.8935L243.694 77.2561C243.482 77.1853 243.411 77.0437 243.34 76.902C243.269 76.7604 243.34 76.548 243.411 76.4063C243.552 76.2647 243.623 76.1231 243.836 76.1231C243.977 76.1231 244.19 76.1231 244.331 76.2647L245.606 77.2561C245.677 77.2561 245.677 77.2561 245.677 77.2561V77.1853L245.464 75.6274C245.464 75.4149 245.535 75.2733 245.606 75.1316C245.748 74.99 245.889 74.9192 246.102 74.9192C246.314 74.9192 246.456 74.99 246.527 75.1316C246.668 75.2733 246.668 75.4149 246.668 75.6274L246.456 77.1853C246.456 77.2561 246.456 77.2561 246.456 77.2561H246.527L247.801 76.3355C247.943 76.1939 248.155 76.1939 248.297 76.1939C248.51 76.1939 248.58 76.3355 248.722 76.4771C248.864 76.6896 248.864 76.902 248.793 77.0437C248.722 77.1853 248.58 77.3269 248.439 77.3978L246.952 78.0351C246.881 78.0351 246.881 78.0351 246.881 78.1059C246.881 78.1059 246.881 78.1767 246.952 78.1767L248.439 78.8141C248.651 78.8849 248.722 79.0265 248.793 79.1682C248.864 79.3098 248.864 79.5222 248.722 79.6639C248.651 79.8055 248.51 79.9471 248.297 79.9471C248.085 79.9471 247.943 79.9471 247.801 79.8055L246.527 78.8141C246.456 78.8141 246.456 78.8141 246.456 78.8141V78.8849L246.668 80.4429C246.668 80.6553 246.668 80.7969 246.527 80.9386C246.385 81.0802 246.243 81.151 246.031 81.151Z" fill="white"/>
<path d="M254.6 81.151C254.387 81.151 254.246 81.0802 254.175 80.9386C254.033 80.7969 254.033 80.6553 254.033 80.4429L254.246 78.8849C254.246 78.8141 254.246 78.8141 254.246 78.8141H254.175L252.9 79.7347C252.759 79.8763 252.546 79.8763 252.405 79.8763C252.263 79.8763 252.121 79.7347 251.98 79.5931C251.838 79.3806 251.838 79.1682 251.909 79.0265C251.98 78.8849 252.121 78.7433 252.263 78.6725L253.75 78.0351C253.821 78.0351 253.821 78.0351 253.821 77.9643C253.821 77.9643 253.821 77.8935 253.75 77.8935L252.263 77.2561C252.05 77.1853 251.98 77.0437 251.909 76.902C251.838 76.7604 251.909 76.548 251.98 76.4063C252.05 76.2647 252.192 76.1231 252.405 76.1231C252.546 76.1231 252.759 76.1231 252.9 76.2647L254.175 77.2561C254.246 77.2561 254.246 77.2561 254.246 77.2561V77.1853L254.033 75.6274C254.033 75.4149 254.104 75.2733 254.175 75.1316C254.317 74.99 254.458 74.9192 254.671 74.9192C254.883 74.9192 255.025 74.99 255.096 75.1316C255.237 75.2733 255.237 75.4149 255.237 75.6274L255.025 77.1853C255.025 77.2561 255.025 77.2561 255.025 77.2561H255.096L256.37 76.3355C256.512 76.1939 256.724 76.1939 256.866 76.1939C257.078 76.1939 257.149 76.3355 257.291 76.4771C257.432 76.6896 257.432 76.902 257.362 77.0437C257.291 77.1853 257.149 77.3269 257.008 77.3978L255.52 78.0351C255.45 78.0351 255.45 78.0351 255.45 78.1059C255.45 78.1059 255.45 78.1767 255.52 78.1767L257.008 78.8141C257.22 78.8849 257.291 79.0265 257.362 79.1682C257.432 79.3098 257.432 79.5222 257.291 79.6639C257.22 79.8055 257.078 79.9471 256.866 79.9471C256.654 79.9471 256.512 79.9471 256.37 79.8055L255.096 78.8141C255.025 78.8141 255.025 78.8141 255.025 78.8141V78.8849L255.237 80.4429C255.237 80.6553 255.237 80.7969 255.096 80.9386C255.025 81.0802 254.812 81.151 254.6 81.151Z" fill="white"/>
<path d="M263.239 81.151C263.027 81.151 262.885 81.0802 262.815 80.9386C262.673 80.7969 262.673 80.6553 262.673 80.4429L262.885 78.8849C262.885 78.8141 262.885 78.8141 262.885 78.8141H262.815L261.54 79.7347C261.398 79.8763 261.186 79.8763 261.044 79.8763C260.903 79.8763 260.761 79.7347 260.619 79.5931C260.478 79.3806 260.478 79.1682 260.548 79.0265C260.619 78.8849 260.761 78.7433 260.903 78.6725L262.39 78.0351C262.461 78.0351 262.461 78.0351 262.461 77.9643C262.461 77.9643 262.461 77.8935 262.39 77.8935L260.903 77.2561C260.69 77.1853 260.619 77.0437 260.548 76.902C260.478 76.7604 260.548 76.548 260.619 76.4063C260.761 76.2647 260.832 76.1231 261.044 76.1231C261.186 76.1231 261.398 76.1231 261.54 76.2647L262.815 77.2561C262.885 77.2561 262.885 77.2561 262.885 77.2561V77.1853L262.673 75.6274C262.673 75.4149 262.744 75.2733 262.815 75.1316C262.956 74.99 263.098 74.9192 263.31 74.9192C263.523 74.9192 263.664 74.99 263.735 75.1316C263.877 75.2733 263.877 75.4149 263.877 75.6274L263.664 77.1853C263.664 77.2561 263.664 77.2561 263.664 77.2561H263.735L265.01 76.3355C265.152 76.1939 265.364 76.1939 265.506 76.1939C265.718 76.1939 265.789 76.3355 265.931 76.4771C266.072 76.6896 266.072 76.902 266.001 77.0437C265.931 77.1853 265.789 77.3269 265.647 77.3978L264.16 78.0351C264.089 78.0351 264.089 78.0351 264.089 78.1059C264.089 78.1059 264.089 78.1767 264.16 78.1767L265.647 78.8141C265.86 78.8849 265.931 79.0265 266.001 79.1682C266.072 79.3098 266.072 79.5222 265.931 79.6639C265.86 79.8055 265.718 79.9471 265.506 79.9471C265.293 79.9471 265.152 79.9471 265.01 79.8055L263.735 78.8141C263.664 78.8141 263.664 78.8141 263.664 78.8141V78.8849L263.877 80.4429C263.877 80.6553 263.877 80.7969 263.735 80.9386C263.594 81.0802 263.452 81.151 263.239 81.151Z" fill="white"/>
<path d="M271.808 81.151C271.595 81.151 271.454 81.0802 271.383 80.9386C271.241 80.7969 271.241 80.6553 271.241 80.4429L271.454 78.8849C271.454 78.8141 271.454 78.8141 271.454 78.8141H271.383L270.108 79.7347C269.967 79.8763 269.754 79.8763 269.613 79.8763C269.471 79.8763 269.329 79.7347 269.188 79.5931C269.046 79.3806 269.046 79.1682 269.117 79.0265C269.188 78.8849 269.329 78.7433 269.471 78.6725L270.958 78.0351C271.029 78.0351 271.029 78.0351 271.029 77.9643C271.029 77.9643 271.029 77.8935 270.958 77.8935L269.471 77.2561C269.258 77.1853 269.188 77.0437 269.117 76.902C269.046 76.7604 269.117 76.548 269.188 76.4063C269.258 76.2647 269.4 76.1231 269.613 76.1231C269.754 76.1231 269.967 76.1231 270.108 76.2647L271.383 77.2561C271.454 77.2561 271.454 77.2561 271.454 77.2561V77.1853L271.241 75.6274C271.241 75.4149 271.312 75.2733 271.383 75.1316C271.525 74.99 271.666 74.9192 271.879 74.9192C272.091 74.9192 272.233 74.99 272.304 75.1316C272.445 75.2733 272.445 75.4149 272.445 75.6274L272.233 77.1853C272.233 77.2561 272.233 77.2561 272.233 77.2561H272.304L273.578 76.3355C273.72 76.1939 273.932 76.1939 274.074 76.1939C274.286 76.1939 274.357 76.3355 274.499 76.4771C274.64 76.6896 274.641 76.902 274.57 77.0437C274.499 77.1853 274.357 77.3269 274.216 77.3978L272.728 78.0351C272.658 78.0351 272.658 78.0351 272.658 78.1059C272.658 78.1059 272.658 78.1767 272.728 78.1767L274.216 78.8141C274.428 78.8849 274.499 79.0265 274.57 79.1682C274.641 79.3098 274.64 79.5222 274.499 79.6639C274.428 79.8055 274.286 79.9471 274.074 79.9471C273.862 79.9471 273.72 79.9471 273.578 79.8055L272.304 78.8141C272.233 78.8141 272.233 78.8141 272.233 78.8141V78.8849L272.445 80.4429C272.445 80.6553 272.445 80.7969 272.304 80.9386C272.162 81.0802 272.02 81.151 271.808 81.151Z" fill="#75BF7A"/>
</svg>
