<svg width="63" height="63" viewBox="0 0 63 63" fill="none" xmlns="http://www.w3.org/2000/svg">
<path d="M60.1005 20.1094L59.9459 19.7327L59.6588 20.0214L53.9399 25.7705L53.8309 25.8801L53.8701 26.0297C54.3482 27.8524 54.5875 29.7355 54.5875 31.6799C54.5875 44.2996 44.3299 54.5572 31.7102 54.5572C19.06 54.5572 8.80261 44.2994 8.80261 31.6799C8.80261 29.7047 9.04202 27.7913 9.51997 25.9691L9.5592 25.8196L9.45014 25.7099L3.73132 19.9609L3.44323 19.6712L3.2893 20.0496C1.82439 23.6509 1 27.5584 1 31.6799C1 48.5923 14.7675 62.3598 31.6799 62.3598C48.5923 62.3598 62.3598 48.5923 62.3598 31.6799C62.3598 27.5901 61.5662 23.6822 60.1005 20.1094ZM50.6997 18.9707L50.8828 19.2438L51.1153 19.0113L56.3198 13.8068L56.4846 13.642L56.3458 13.4548C50.76 5.91546 41.7851 1 31.6799 1C21.6054 1 12.6303 5.88485 7.04426 13.4245L6.90553 13.6118L7.07032 13.7766L12.2747 18.981L12.5073 19.2135L12.6904 18.9404C16.1596 13.7665 21.6921 10.0885 28.0907 9.07169C29.2564 8.89238 30.4528 8.80261 31.6799 8.80261C32.9071 8.80261 34.1035 8.89239 35.2693 9.07171C41.6975 10.0884 47.2301 13.7962 50.6997 18.9707Z" fill="#75BF7A" stroke="#75BF7A" stroke-width="0.540615"/>
<path d="M38.8813 22.62L34.7673 27.856C36.3087 28.4 37.5327 29.2613 38.4393 30.44C39.3687 31.596 39.8333 32.956 39.8333 34.52C39.8333 37.0133 38.9947 38.9627 37.3173 40.368C35.64 41.7733 33.5887 42.476 31.1633 42.476C29.2367 42.476 27.5367 42.0453 26.0633 41.184C24.59 40.3 23.5133 39.0307 22.8333 37.376L27.5253 34.656C28.1147 36.3333 29.3273 37.172 31.1633 37.172C32.5007 37.2627 33.4527 36.8433 34.0193 35.914C34.586 34.9847 34.586 34.0553 34.0193 33.126C33.4527 32.1967 32.5007 31.7773 31.1633 31.868H30.0413L27.9673 28.774L32.2853 23.3H23.5813V18.2H38.8813V22.62Z" fill="#75BF7A"/>
</svg>
