<svg width="63" height="63" viewBox="0 0 63 63" fill="none" xmlns="http://www.w3.org/2000/svg">
<path d="M60.1005 20.1094L59.9459 19.7327L59.6588 20.0214L53.9399 25.7705L53.8309 25.8801L53.8701 26.0297C54.3482 27.8524 54.5875 29.7355 54.5875 31.6799C54.5875 44.2996 44.3299 54.5572 31.7102 54.5572C19.06 54.5572 8.80261 44.2994 8.80261 31.6799C8.80261 29.7047 9.04202 27.7913 9.51997 25.9691L9.5592 25.8196L9.45014 25.7099L3.73132 19.9609L3.44323 19.6712L3.2893 20.0496C1.82439 23.6509 1 27.5584 1 31.6799C1 48.5923 14.7675 62.3598 31.6799 62.3598C48.5923 62.3598 62.3598 48.5923 62.3598 31.6799C62.3598 27.5901 61.5662 23.6822 60.1005 20.1094ZM50.6997 18.9707L50.8828 19.2438L51.1153 19.0113L56.3198 13.8068L56.4846 13.642L56.3458 13.4548C50.76 5.91546 41.7851 1 31.6799 1C21.6054 1 12.6303 5.88485 7.04426 13.4245L6.90553 13.6118L7.07032 13.7766L12.2747 18.981L12.5073 19.2135L12.6904 18.9404C16.1596 13.7665 21.6921 10.0885 28.0907 9.07169C29.2564 8.89238 30.4528 8.80261 31.6799 8.80261C32.9071 8.80261 34.1035 8.89239 35.2693 9.07171C41.6975 10.0884 47.2301 13.7962 50.6997 18.9707Z" fill="#75BF7A" stroke="#75BF7A" stroke-width="0.540615"/>
<path d="M39.3675 41H23.1835V37.056L31.1735 28.76C32.7829 27.0827 33.5875 25.6773 33.5875 24.544C33.5875 23.796 33.3609 23.1953 32.9075 22.742C32.4542 22.266 31.8309 22.028 31.0375 22.028C29.4509 22.028 28.2835 22.8893 27.5355 24.612L22.9455 21.926C23.6709 20.2713 24.7475 18.9907 26.1755 18.084C27.6035 17.1773 29.2015 16.724 30.9695 16.724C33.2135 16.724 35.1062 17.4153 36.6475 18.798C38.2342 20.158 39.0275 21.994 39.0275 24.306C39.0275 26.822 37.7922 29.3153 35.3215 31.786L31.3775 35.764H39.3675V41Z" fill="#75BF7A"/>
</svg>
